<mxfile host="app.diagrams.net" modified="2022-01-30T12:25:36.262Z" agent="5.0 (Windows NT 10.0; Win64; x64) AppleWebKit/537.36 (KHTML, like Gecko) Chrome/97.0.4692.99 Safari/537.36" etag="YzFMYNZ6h_AVxWUa3db9" version="16.5.2" type="github">
  <diagram id="6NRVWH_Awlf66jCDvKp_" name="Page-1">
    <mxGraphModel dx="758" dy="458" grid="1" gridSize="10" guides="1" tooltips="1" connect="1" arrows="1" fold="1" page="1" pageScale="1" pageWidth="827" pageHeight="1169" math="0" shadow="0">
      <root>
        <mxCell id="0" />
        <mxCell id="1" parent="0" />
        <mxCell id="PBn2uY1aKbSOeGTXGZCq-47" value="Server App&amp;nbsp; &amp;nbsp; &amp;nbsp; &amp;nbsp; &amp;nbsp; &amp;nbsp; &amp;nbsp; &amp;nbsp; &amp;nbsp; &amp;nbsp; &amp;nbsp; &amp;nbsp; &amp;nbsp; &amp;nbsp; &amp;nbsp; &amp;nbsp; &amp;nbsp; &amp;nbsp; &amp;nbsp; &amp;nbsp; &amp;nbsp; &amp;nbsp; &amp;nbsp; &amp;nbsp; &amp;nbsp; &amp;nbsp; &amp;nbsp; &amp;nbsp; &amp;nbsp; &amp;nbsp; &amp;nbsp; &amp;nbsp; &amp;nbsp; &amp;nbsp; &amp;nbsp; &amp;nbsp; &amp;nbsp; &amp;nbsp; &amp;nbsp; &amp;nbsp; &amp;nbsp; &amp;nbsp; &amp;nbsp; &amp;nbsp; &amp;nbsp; &amp;nbsp; &amp;nbsp; &amp;nbsp; &amp;nbsp; &amp;nbsp; &amp;nbsp; &amp;nbsp; &amp;nbsp; &amp;nbsp; &amp;nbsp; &amp;nbsp; &amp;nbsp; &amp;nbsp; &amp;nbsp; &amp;nbsp; &amp;nbsp; &amp;nbsp;&amp;nbsp;&lt;br&gt;&lt;br&gt;&lt;br&gt;&lt;br&gt;&lt;br&gt;" style="text;strokeColor=none;fillColor=none;align=center;verticalAlign=middle;rounded=0;labelBackgroundColor=none;labelBorderColor=default;horizontal=1;whiteSpace=wrap;html=1;" vertex="1" parent="1">
          <mxGeometry x="410" y="140" width="470" height="170" as="geometry" />
        </mxCell>
        <mxCell id="PBn2uY1aKbSOeGTXGZCq-29" style="edgeStyle=orthogonalEdgeStyle;rounded=0;orthogonalLoop=1;jettySize=auto;html=1;entryX=0;entryY=0.5;entryDx=0;entryDy=0;" edge="1" parent="1" source="PBn2uY1aKbSOeGTXGZCq-12" target="PBn2uY1aKbSOeGTXGZCq-24">
          <mxGeometry relative="1" as="geometry">
            <Array as="points">
              <mxPoint x="320" y="440" />
            </Array>
          </mxGeometry>
        </mxCell>
        <mxCell id="PBn2uY1aKbSOeGTXGZCq-12" value="" style="rounded=0;whiteSpace=wrap;html=1;" vertex="1" parent="1">
          <mxGeometry x="160" y="300" width="40" height="270" as="geometry" />
        </mxCell>
        <mxCell id="PBn2uY1aKbSOeGTXGZCq-13" value="" style="endArrow=none;dashed=1;html=1;dashPattern=1 3;strokeWidth=2;rounded=0;exitX=0.5;exitY=0;exitDx=0;exitDy=0;" edge="1" parent="1" source="PBn2uY1aKbSOeGTXGZCq-12" target="PBn2uY1aKbSOeGTXGZCq-17">
          <mxGeometry width="50" height="50" relative="1" as="geometry">
            <mxPoint x="410" y="340" as="sourcePoint" />
            <mxPoint x="175" y="270" as="targetPoint" />
            <Array as="points" />
          </mxGeometry>
        </mxCell>
        <mxCell id="PBn2uY1aKbSOeGTXGZCq-16" value="" style="endArrow=none;dashed=1;html=1;dashPattern=1 3;strokeWidth=2;rounded=0;exitX=0.5;exitY=1;exitDx=0;exitDy=0;" edge="1" parent="1" source="PBn2uY1aKbSOeGTXGZCq-12">
          <mxGeometry width="50" height="50" relative="1" as="geometry">
            <mxPoint x="340" y="470" as="sourcePoint" />
            <mxPoint x="180" y="741" as="targetPoint" />
          </mxGeometry>
        </mxCell>
        <mxCell id="PBn2uY1aKbSOeGTXGZCq-17" value="User" style="shape=umlActor;verticalLabelPosition=bottom;verticalAlign=top;html=1;outlineConnect=0;" vertex="1" parent="1">
          <mxGeometry x="165" y="190" width="30" height="60" as="geometry" />
        </mxCell>
        <mxCell id="PBn2uY1aKbSOeGTXGZCq-18" value="" style="rounded=0;whiteSpace=wrap;html=1;" vertex="1" parent="1">
          <mxGeometry x="280" y="200" width="120" height="60" as="geometry" />
        </mxCell>
        <mxCell id="PBn2uY1aKbSOeGTXGZCq-19" value="Client App" style="text;html=1;strokeColor=none;fillColor=none;align=center;verticalAlign=middle;whiteSpace=wrap;rounded=0;" vertex="1" parent="1">
          <mxGeometry x="310" y="215" width="60" height="30" as="geometry" />
        </mxCell>
        <mxCell id="PBn2uY1aKbSOeGTXGZCq-35" value="" style="edgeStyle=orthogonalEdgeStyle;rounded=0;orthogonalLoop=1;jettySize=auto;html=1;exitX=1.036;exitY=0.223;exitDx=0;exitDy=0;exitPerimeter=0;entryX=0;entryY=0.222;entryDx=0;entryDy=0;entryPerimeter=0;" edge="1" parent="1" source="PBn2uY1aKbSOeGTXGZCq-24" target="PBn2uY1aKbSOeGTXGZCq-34">
          <mxGeometry relative="1" as="geometry" />
        </mxCell>
        <mxCell id="PBn2uY1aKbSOeGTXGZCq-24" value="" style="rounded=0;whiteSpace=wrap;html=1;" vertex="1" parent="1">
          <mxGeometry x="320" y="300" width="40" height="270" as="geometry" />
        </mxCell>
        <mxCell id="PBn2uY1aKbSOeGTXGZCq-25" value="" style="endArrow=none;dashed=1;html=1;dashPattern=1 3;strokeWidth=2;rounded=0;exitX=0.5;exitY=0;exitDx=0;exitDy=0;" edge="1" parent="1" source="PBn2uY1aKbSOeGTXGZCq-24">
          <mxGeometry width="50" height="50" relative="1" as="geometry">
            <mxPoint x="570" y="340" as="sourcePoint" />
            <mxPoint x="340" y="260" as="targetPoint" />
            <Array as="points" />
          </mxGeometry>
        </mxCell>
        <mxCell id="PBn2uY1aKbSOeGTXGZCq-26" value="" style="endArrow=none;dashed=1;html=1;dashPattern=1 3;strokeWidth=2;rounded=0;exitX=0.5;exitY=1;exitDx=0;exitDy=0;" edge="1" parent="1" source="PBn2uY1aKbSOeGTXGZCq-24">
          <mxGeometry width="50" height="50" relative="1" as="geometry">
            <mxPoint x="500" y="470" as="sourcePoint" />
            <mxPoint x="340" y="741" as="targetPoint" />
          </mxGeometry>
        </mxCell>
        <mxCell id="PBn2uY1aKbSOeGTXGZCq-30" value="Action" style="text;html=1;strokeColor=none;fillColor=none;align=center;verticalAlign=middle;whiteSpace=wrap;rounded=0;" vertex="1" parent="1">
          <mxGeometry x="200" y="410" width="120" height="30" as="geometry" />
        </mxCell>
        <mxCell id="PBn2uY1aKbSOeGTXGZCq-31" style="edgeStyle=orthogonalEdgeStyle;rounded=0;orthogonalLoop=1;jettySize=auto;html=1;" edge="1" parent="1" source="PBn2uY1aKbSOeGTXGZCq-24" target="PBn2uY1aKbSOeGTXGZCq-24">
          <mxGeometry relative="1" as="geometry">
            <Array as="points">
              <mxPoint x="440" y="435" />
            </Array>
          </mxGeometry>
        </mxCell>
        <mxCell id="PBn2uY1aKbSOeGTXGZCq-32" value="Refresh (dynamic page)" style="text;html=1;strokeColor=none;fillColor=none;align=center;verticalAlign=middle;whiteSpace=wrap;rounded=0;" vertex="1" parent="1">
          <mxGeometry x="360" y="390" width="90" height="30" as="geometry" />
        </mxCell>
        <mxCell id="PBn2uY1aKbSOeGTXGZCq-57" value="" style="edgeStyle=orthogonalEdgeStyle;rounded=0;orthogonalLoop=1;jettySize=auto;html=1;" edge="1" parent="1" source="PBn2uY1aKbSOeGTXGZCq-34" target="PBn2uY1aKbSOeGTXGZCq-52">
          <mxGeometry relative="1" as="geometry">
            <Array as="points">
              <mxPoint x="610" y="360" />
              <mxPoint x="610" y="360" />
            </Array>
          </mxGeometry>
        </mxCell>
        <mxCell id="PBn2uY1aKbSOeGTXGZCq-64" style="edgeStyle=orthogonalEdgeStyle;rounded=0;orthogonalLoop=1;jettySize=auto;html=1;entryX=1.064;entryY=0.778;entryDx=0;entryDy=0;entryPerimeter=0;" edge="1" parent="1" source="PBn2uY1aKbSOeGTXGZCq-34" target="PBn2uY1aKbSOeGTXGZCq-24">
          <mxGeometry relative="1" as="geometry">
            <Array as="points">
              <mxPoint x="460" y="510" />
              <mxPoint x="460" y="510" />
            </Array>
          </mxGeometry>
        </mxCell>
        <mxCell id="PBn2uY1aKbSOeGTXGZCq-34" value="" style="rounded=0;whiteSpace=wrap;html=1;" vertex="1" parent="1">
          <mxGeometry x="490" y="300" width="40" height="270" as="geometry" />
        </mxCell>
        <mxCell id="PBn2uY1aKbSOeGTXGZCq-36" value="" style="rounded=0;whiteSpace=wrap;html=1;" vertex="1" parent="1">
          <mxGeometry x="450" y="200" width="120" height="60" as="geometry" />
        </mxCell>
        <mxCell id="PBn2uY1aKbSOeGTXGZCq-37" value="" style="endArrow=none;dashed=1;html=1;dashPattern=1 3;strokeWidth=2;rounded=0;exitX=0.5;exitY=0;exitDx=0;exitDy=0;" edge="1" parent="1">
          <mxGeometry width="50" height="50" relative="1" as="geometry">
            <mxPoint x="510" y="300" as="sourcePoint" />
            <mxPoint x="510" y="260" as="targetPoint" />
            <Array as="points" />
          </mxGeometry>
        </mxCell>
        <mxCell id="PBn2uY1aKbSOeGTXGZCq-39" value="Controller layer" style="text;html=1;strokeColor=none;fillColor=none;align=center;verticalAlign=middle;whiteSpace=wrap;rounded=0;" vertex="1" parent="1">
          <mxGeometry x="470" y="215" width="80" height="30" as="geometry" />
        </mxCell>
        <mxCell id="PBn2uY1aKbSOeGTXGZCq-40" value="Request" style="text;html=1;strokeColor=none;fillColor=none;align=center;verticalAlign=middle;whiteSpace=wrap;rounded=0;" vertex="1" parent="1">
          <mxGeometry x="360" y="330" width="130" height="30" as="geometry" />
        </mxCell>
        <mxCell id="PBn2uY1aKbSOeGTXGZCq-43" value="Response" style="text;html=1;strokeColor=none;fillColor=none;align=center;verticalAlign=middle;whiteSpace=wrap;rounded=0;" vertex="1" parent="1">
          <mxGeometry x="360" y="480" width="130" height="30" as="geometry" />
        </mxCell>
        <mxCell id="PBn2uY1aKbSOeGTXGZCq-48" value="" style="rounded=0;whiteSpace=wrap;html=1;labelBackgroundColor=none;labelBorderColor=default;" vertex="1" parent="1">
          <mxGeometry x="600" y="200" width="120" height="60" as="geometry" />
        </mxCell>
        <mxCell id="PBn2uY1aKbSOeGTXGZCq-49" value="" style="rounded=0;whiteSpace=wrap;html=1;labelBackgroundColor=none;labelBorderColor=default;" vertex="1" parent="1">
          <mxGeometry x="750" y="200" width="120" height="60" as="geometry" />
        </mxCell>
        <mxCell id="PBn2uY1aKbSOeGTXGZCq-50" value="Service layer" style="text;html=1;strokeColor=none;fillColor=none;align=center;verticalAlign=middle;whiteSpace=wrap;rounded=0;labelBackgroundColor=none;labelBorderColor=none;" vertex="1" parent="1">
          <mxGeometry x="630" y="215" width="60" height="30" as="geometry" />
        </mxCell>
        <mxCell id="PBn2uY1aKbSOeGTXGZCq-51" value="Database" style="text;html=1;strokeColor=none;fillColor=none;align=center;verticalAlign=middle;whiteSpace=wrap;rounded=0;labelBackgroundColor=none;labelBorderColor=none;" vertex="1" parent="1">
          <mxGeometry x="780" y="215" width="60" height="30" as="geometry" />
        </mxCell>
        <mxCell id="PBn2uY1aKbSOeGTXGZCq-58" value="" style="edgeStyle=orthogonalEdgeStyle;rounded=0;orthogonalLoop=1;jettySize=auto;html=1;" edge="1" parent="1" source="PBn2uY1aKbSOeGTXGZCq-52" target="PBn2uY1aKbSOeGTXGZCq-54">
          <mxGeometry relative="1" as="geometry">
            <Array as="points">
              <mxPoint x="740" y="360" />
              <mxPoint x="740" y="360" />
            </Array>
          </mxGeometry>
        </mxCell>
        <mxCell id="PBn2uY1aKbSOeGTXGZCq-59" value="" style="edgeStyle=orthogonalEdgeStyle;rounded=0;orthogonalLoop=1;jettySize=auto;html=1;" edge="1" parent="1" source="PBn2uY1aKbSOeGTXGZCq-52" target="PBn2uY1aKbSOeGTXGZCq-34">
          <mxGeometry relative="1" as="geometry">
            <Array as="points">
              <mxPoint x="590" y="510" />
              <mxPoint x="590" y="510" />
            </Array>
          </mxGeometry>
        </mxCell>
        <mxCell id="PBn2uY1aKbSOeGTXGZCq-52" value="" style="rounded=0;whiteSpace=wrap;html=1;" vertex="1" parent="1">
          <mxGeometry x="640" y="300" width="40" height="270" as="geometry" />
        </mxCell>
        <mxCell id="PBn2uY1aKbSOeGTXGZCq-53" value="" style="endArrow=none;dashed=1;html=1;dashPattern=1 3;strokeWidth=2;rounded=0;exitX=0.5;exitY=0;exitDx=0;exitDy=0;" edge="1" parent="1">
          <mxGeometry width="50" height="50" relative="1" as="geometry">
            <mxPoint x="660" y="300" as="sourcePoint" />
            <mxPoint x="660" y="260" as="targetPoint" />
            <Array as="points" />
          </mxGeometry>
        </mxCell>
        <mxCell id="PBn2uY1aKbSOeGTXGZCq-60" value="" style="edgeStyle=orthogonalEdgeStyle;rounded=0;orthogonalLoop=1;jettySize=auto;html=1;" edge="1" parent="1" source="PBn2uY1aKbSOeGTXGZCq-54" target="PBn2uY1aKbSOeGTXGZCq-52">
          <mxGeometry relative="1" as="geometry">
            <Array as="points">
              <mxPoint x="730" y="510" />
              <mxPoint x="730" y="510" />
            </Array>
          </mxGeometry>
        </mxCell>
        <mxCell id="PBn2uY1aKbSOeGTXGZCq-54" value="" style="rounded=0;whiteSpace=wrap;html=1;" vertex="1" parent="1">
          <mxGeometry x="790" y="300" width="40" height="270" as="geometry" />
        </mxCell>
        <mxCell id="PBn2uY1aKbSOeGTXGZCq-55" value="" style="endArrow=none;dashed=1;html=1;dashPattern=1 3;strokeWidth=2;rounded=0;exitX=0.5;exitY=0;exitDx=0;exitDy=0;" edge="1" parent="1">
          <mxGeometry width="50" height="50" relative="1" as="geometry">
            <mxPoint x="810" y="300" as="sourcePoint" />
            <mxPoint x="810" y="260" as="targetPoint" />
            <Array as="points" />
          </mxGeometry>
        </mxCell>
        <mxCell id="PBn2uY1aKbSOeGTXGZCq-61" value="SQL Command" style="text;html=1;strokeColor=none;fillColor=none;align=center;verticalAlign=middle;whiteSpace=wrap;rounded=0;labelBackgroundColor=none;labelBorderColor=none;" vertex="1" parent="1">
          <mxGeometry x="680" y="330" width="110" height="30" as="geometry" />
        </mxCell>
        <mxCell id="PBn2uY1aKbSOeGTXGZCq-62" value="Data" style="text;html=1;strokeColor=none;fillColor=none;align=center;verticalAlign=middle;whiteSpace=wrap;rounded=0;labelBackgroundColor=none;labelBorderColor=none;" vertex="1" parent="1">
          <mxGeometry x="680" y="480" width="110" height="30" as="geometry" />
        </mxCell>
        <mxCell id="PBn2uY1aKbSOeGTXGZCq-65" value="Logic operation" style="text;html=1;strokeColor=none;fillColor=none;align=center;verticalAlign=middle;whiteSpace=wrap;rounded=0;labelBackgroundColor=none;labelBorderColor=none;" vertex="1" parent="1">
          <mxGeometry x="530" y="330" width="110" height="30" as="geometry" />
        </mxCell>
        <mxCell id="PBn2uY1aKbSOeGTXGZCq-66" value="Result" style="text;html=1;strokeColor=none;fillColor=none;align=center;verticalAlign=middle;whiteSpace=wrap;rounded=0;labelBackgroundColor=none;labelBorderColor=none;" vertex="1" parent="1">
          <mxGeometry x="530" y="480" width="110" height="30" as="geometry" />
        </mxCell>
        <mxCell id="PBn2uY1aKbSOeGTXGZCq-67" value="" style="endArrow=none;dashed=1;html=1;dashPattern=1 3;strokeWidth=2;rounded=0;" edge="1" parent="1">
          <mxGeometry width="50" height="50" relative="1" as="geometry">
            <mxPoint x="510" y="740" as="sourcePoint" />
            <mxPoint x="510" y="570" as="targetPoint" />
          </mxGeometry>
        </mxCell>
        <mxCell id="PBn2uY1aKbSOeGTXGZCq-68" value="" style="endArrow=none;dashed=1;html=1;dashPattern=1 3;strokeWidth=2;rounded=0;" edge="1" parent="1">
          <mxGeometry width="50" height="50" relative="1" as="geometry">
            <mxPoint x="659.71" y="740" as="sourcePoint" />
            <mxPoint x="659.71" y="570" as="targetPoint" />
          </mxGeometry>
        </mxCell>
        <mxCell id="PBn2uY1aKbSOeGTXGZCq-69" value="" style="endArrow=none;dashed=1;html=1;dashPattern=1 3;strokeWidth=2;rounded=0;" edge="1" parent="1">
          <mxGeometry width="50" height="50" relative="1" as="geometry">
            <mxPoint x="809.71" y="740" as="sourcePoint" />
            <mxPoint x="809.71" y="570" as="targetPoint" />
          </mxGeometry>
        </mxCell>
      </root>
    </mxGraphModel>
  </diagram>
</mxfile>
